<?xml version="1.0" encoding="utf-8"?>
<!-- Generator: Adobe Illustrator 16.0.4, SVG Export Plug-In . SVG Version: 6.00 Build 0)  -->
<!DOCTYPE svg PUBLIC "-//W3C//DTD SVG 1.1//EN" "http://www.w3.org/Graphics/SVG/1.1/DTD/svg11.dtd">
<svg version="1.1" id="Layer_1" xmlns="http://www.w3.org/2000/svg" xmlns:xlink="http://www.w3.org/1999/xlink" x="0px" y="0px"
	 width="24px" height="24px" viewBox="0 0 24 24" enable-background="new 0 0 24 24" xml:space="preserve">
<g>
	<g>
		<path fill="#030104" d="M12.147,10.104c-1.652,0-2.989,1.338-2.989,2.988c0,1.649,1.337,2.986,2.989,2.986
			c1.648,0,2.988-1.337,2.988-2.986C15.135,11.442,13.795,10.104,12.147,10.104z M20.114,7.117h-2.392
			c-0.327,0-0.682-0.256-0.785-0.568l-0.618-1.854c-0.104-0.312-0.459-0.566-0.786-0.566H8.76c-0.329,0-0.684,0.255-0.787,0.566
			L7.355,6.549C7.252,6.861,6.897,7.117,6.569,7.117H4.18c-1.096,0-1.993,0.896-1.993,1.99v8.963c0,1.098,0.897,1.992,1.993,1.992
			h15.935c1.096,0,1.991-0.895,1.991-1.992V9.107C22.105,8.013,21.21,7.117,20.114,7.117z M12.147,18.07
			c-2.751,0-4.98-2.228-4.98-4.978c0-2.75,2.229-4.98,4.98-4.98c2.75,0,4.979,2.23,4.979,4.98
			C17.126,15.843,14.896,18.07,12.147,18.07z M19.417,10.5c-0.385,0-0.697-0.312-0.697-0.697c0-0.385,0.312-0.698,0.697-0.698
			s0.697,0.313,0.697,0.698C20.114,10.189,19.802,10.5,19.417,10.5z"/>
	</g>
</g>
</svg>
