<?xml version="1.0" encoding="utf-8"?>
<!-- Generator: Adobe Illustrator 16.0.4, SVG Export Plug-In . SVG Version: 6.00 Build 0)  -->
<!DOCTYPE svg PUBLIC "-//W3C//DTD SVG 1.1//EN" "http://www.w3.org/Graphics/SVG/1.1/DTD/svg11.dtd">
<svg version="1.1" id="Layer_1" xmlns="http://www.w3.org/2000/svg" xmlns:xlink="http://www.w3.org/1999/xlink" x="0px" y="0px"
	 width="24px" height="24px" viewBox="0 0 24 24" enable-background="new 0 0 24 24" xml:space="preserve">
<g>
	<path d="M11.75,2.486c-3.471,0-6.294,2.823-6.294,6.293c0,1.398,0.893,3.677,2.729,6.966c1.299,2.327,2.576,4.268,2.63,4.35
		l0.936,1.418l0.936-1.418c0.054-0.082,1.33-2.022,2.629-4.35c1.836-3.29,2.729-5.568,2.729-6.966
		C18.043,5.31,15.22,2.486,11.75,2.486z M11.75,12c-1.802,0-3.263-1.461-3.263-3.263s1.461-3.262,3.263-3.262
		s3.262,1.46,3.262,3.262S13.552,12,11.75,12z"/>
</g>
</svg>
